<svg width="20" height="20" viewBox="0 0 20 20" fill="none" xmlns="http://www.w3.org/2000/svg">
<path fill-rule="evenodd" clip-rule="evenodd" d="M6.66797 0.833008C7.12821 0.833008 7.5013 1.2061 7.5013 1.66634V2.49967H12.5013V1.66634C12.5013 1.2061 12.8744 0.833008 13.3346 0.833008C13.7949 0.833008 14.168 1.2061 14.168 1.66634V2.49967H15.0013C16.8423 2.49967 18.3346 3.99206 18.3346 5.83301V14.9997C18.3346 16.8406 16.8423 18.333 15.0013 18.333H5.0013C3.16035 18.333 1.66797 16.8406 1.66797 14.9997V5.83301C1.66797 3.99206 3.16035 2.49967 5.0013 2.49967H5.83464V1.66634C5.83464 1.2061 6.20773 0.833008 6.66797 0.833008ZM12.5013 4.16634C12.5013 4.62658 12.8744 4.99967 13.3346 4.99967C13.7949 4.99967 14.168 4.62658 14.168 4.16634H15.0013C15.9218 4.16634 16.668 4.91253 16.668 5.83301V6.24967H3.33464V5.83301C3.33464 4.91253 4.08083 4.16634 5.0013 4.16634H5.83464C5.83464 4.62658 6.20773 4.99967 6.66797 4.99967C7.12821 4.99967 7.5013 4.62658 7.5013 4.16634H12.5013ZM16.668 7.91634H3.33464V14.9997C3.33464 15.9201 4.08083 16.6663 5.0013 16.6663H15.0013C15.9218 16.6663 16.668 15.9201 16.668 14.9997V7.91634Z" fill="#667185"/>
</svg>
