<svg width="20" height="20" viewBox="0 0 20 20" fill="none" xmlns="http://www.w3.org/2000/svg">
<path d="M5.83333 9.99967C5.83333 9.53944 6.20643 9.16634 6.66667 9.16634H13.3333C13.7936 9.16634 14.1667 9.53944 14.1667 9.99967C14.1667 10.4599 13.7936 10.833 13.3333 10.833H6.66667C6.20643 10.833 5.83333 10.4599 5.83333 9.99967Z" fill="#667185"/>
<path d="M6.66667 13.333C6.20643 13.333 5.83333 13.7061 5.83333 14.1663C5.83333 14.6266 6.20643 14.9997 6.66667 14.9997H13.3333C13.7936 14.9997 14.1667 14.6266 14.1667 14.1663C14.1667 13.7061 13.7936 13.333 13.3333 13.333H6.66667Z" fill="#667185"/>
<path fill-rule="evenodd" clip-rule="evenodd" d="M5.83333 0.833008C3.99238 0.833008 2.5 2.32539 2.5 4.16634V15.833C2.5 17.674 3.99238 19.1663 5.83333 19.1663H14.1667C16.0076 19.1663 17.5 17.674 17.5 15.833V7.57146C17.5 6.79168 17.2266 6.03657 16.7274 5.43752L13.8898 2.03239C13.2565 1.27242 12.3183 0.833008 11.3291 0.833008H5.83333ZM4.16667 4.16634C4.16667 3.24587 4.91286 2.49967 5.83333 2.49967H10.8333V4.99967C10.8333 6.84062 12.3257 8.33301 14.1667 8.33301H15.8333V15.833C15.8333 16.7535 15.0871 17.4997 14.1667 17.4997H5.83333C4.91286 17.4997 4.16667 16.7535 4.16667 15.833V4.16634ZM15.5661 6.66634C15.5299 6.61029 15.4901 6.55623 15.447 6.50449L12.6094 3.09937C12.5747 3.05772 12.5382 3.01801 12.5 2.98029V4.99967C12.5 5.92015 13.2462 6.66634 14.1667 6.66634H15.5661Z" fill="#667185"/>
</svg>
