<svg width="140" height="40" viewBox="0 0 140 40" fill="none" xmlns="http://www.w3.org/2000/svg">
<path d="M43.0222 4.77067V10.2147C43.0224 10.3843 42.9785 10.5511 42.8949 10.6987C42.8113 10.8462 42.6908 10.9696 42.5452 11.0567L38.8602 13.2687C38.7857 13.3136 38.7006 13.3379 38.6136 13.339C38.5266 13.3401 38.4408 13.3181 38.3652 13.2751C38.2895 13.2321 38.2267 13.1698 38.1831 13.0945C38.1395 13.0192 38.1168 12.9337 38.1172 12.8467V7.40267C38.1173 7.23347 38.1612 7.06718 38.2446 6.91998C38.328 6.77278 38.4481 6.64968 38.5932 6.56267L42.2792 4.34967C42.3537 4.30475 42.4388 4.28047 42.5258 4.27934C42.6128 4.27821 42.6985 4.30026 42.7742 4.34322C42.8498 4.38619 42.9127 4.44853 42.9563 4.52382C42.9999 4.59912 43.0226 4.68367 43.0222 4.77067Z" fill="#101928"/>
<path d="M20.1022 10.925L8.87019 4.34803C8.79425 4.30348 8.7079 4.27977 8.61986 4.2793C8.53182 4.27883 8.44522 4.30162 8.36881 4.34535C8.2924 4.38909 8.22889 4.45222 8.18471 4.52837C8.14053 4.60452 8.11723 4.69099 8.11719 4.77903V21.544C8.11737 21.8028 8.18451 22.0572 8.31208 22.2823C8.43965 22.5075 8.6233 22.6958 8.84519 22.829L12.3572 24.936C12.4331 24.9813 12.5197 25.0056 12.6081 25.0065C12.6965 25.0074 12.7835 24.9849 12.8604 24.9412C12.9372 24.8974 13.0011 24.8342 13.0455 24.7577C13.0899 24.6813 13.1133 24.5944 13.1132 24.506V13.246C13.1132 13.2109 13.1225 13.1765 13.1401 13.1461C13.1576 13.1157 13.1829 13.0905 13.2133 13.073C13.2437 13.0554 13.2781 13.0462 13.3132 13.0462C13.3483 13.0462 13.3828 13.0555 13.4132 13.073L20.1072 16.93C20.2592 17.0178 20.4317 17.064 20.6072 17.064C20.7827 17.064 20.9552 17.0178 21.1072 16.93L27.8002 13.071C27.8306 13.0535 27.865 13.0442 27.9001 13.0442C27.9352 13.0442 27.9697 13.0534 28.0001 13.071C28.0305 13.0885 28.0557 13.1137 28.0733 13.1441C28.0909 13.1745 28.1002 13.2089 28.1002 13.244V19.334C28.1004 19.505 28.0568 19.6733 27.9734 19.8226C27.8901 19.9719 27.7698 20.0974 27.6242 20.187L21.3442 24.04C21.2716 24.0847 21.2116 24.1472 21.1699 24.2216C21.1283 24.296 21.1063 24.3798 21.1062 24.465V30.097C21.1064 30.1846 21.1296 30.2706 21.1734 30.3465C21.2173 30.4223 21.2803 30.4852 21.3562 30.529L30.0882 35.585C30.2426 35.6746 30.4182 35.7211 30.5966 35.7199C30.7751 35.7187 30.95 35.6697 31.1032 35.578L42.6032 28.678C42.7509 28.589 42.8731 28.4634 42.9579 28.3132C43.0427 28.163 43.0873 27.9935 43.0872 27.821V16.782C43.0873 16.6936 43.0639 16.6068 43.0195 16.5303C42.9751 16.4539 42.9112 16.3906 42.8344 16.3469C42.7575 16.3032 42.6705 16.2806 42.5821 16.2815C42.4937 16.2824 42.4071 16.3068 42.3312 16.352L38.5762 18.605C38.4285 18.694 38.3063 18.8197 38.2215 18.9699C38.1367 19.12 38.0921 19.2896 38.0922 19.462V25.107C38.0924 25.1936 38.0701 25.2788 38.0275 25.3541C37.9849 25.4295 37.9235 25.4925 37.8492 25.537L31.0692 29.605C30.9249 29.6916 30.7611 29.7404 30.5929 29.7469C30.4248 29.7534 30.2577 29.7173 30.1072 29.642L25.6022 27.389L32.6122 23.183C32.7598 23.0941 32.8819 22.9686 32.9667 22.8186C33.0515 22.6687 33.0961 22.4993 33.0962 22.327V4.77903C33.0959 4.69122 33.0724 4.60505 33.0282 4.52918C32.984 4.45331 32.9206 4.39042 32.8444 4.34683C32.7682 4.30324 32.6818 4.2805 32.594 4.28089C32.5062 4.28127 32.42 4.30477 32.3442 4.34903L21.1112 10.925C20.958 11.0147 20.7837 11.0619 20.6062 11.0619C20.4287 11.0619 20.2554 11.0147 20.1022 10.925Z" fill="#14A800"/>
<path d="M58.7979 13.6797C58.7979 13.445 58.7766 13.2104 58.7339 12.9757C58.7126 12.7197 58.6486 12.4957 58.5419 12.3037C58.4566 12.0904 58.3179 11.9197 58.1259 11.7917C57.9553 11.6637 57.7099 11.5997 57.3899 11.5997C56.9846 11.5997 56.6433 11.7277 56.3659 11.9837C56.2379 11.6424 56.1739 11.333 56.1739 11.0557C56.1739 10.7144 56.2273 10.3837 56.3339 10.0637C56.4619 9.72238 56.6539 9.42371 56.9099 9.16771C57.1659 8.91171 57.4859 8.70905 57.8699 8.55971C58.2753 8.38904 58.7659 8.30371 59.3419 8.30371C60.6219 8.30371 61.6139 8.68771 62.3179 9.45571C63.0219 10.2237 63.3739 11.2797 63.3739 12.6237V31.5677C62.7979 31.5677 62.2326 31.525 61.6779 31.4397C61.1446 31.3544 60.6539 31.1837 60.2059 30.9277C59.7793 30.6504 59.4379 30.245 59.1819 29.7117C58.9259 29.1784 58.7979 28.4637 58.7979 27.5677V13.6797ZM55.6939 31.5677H55.3739C54.8193 31.5677 54.2859 31.5144 53.7739 31.4077C53.2619 31.301 52.8033 31.109 52.3979 30.8317C52.0139 30.5544 51.6939 30.1704 51.4379 29.6797C51.2033 29.189 51.0859 28.549 51.0859 27.7597V8.33571H51.5979C52.1099 8.33571 52.6113 8.39971 53.1019 8.52771C53.5926 8.63438 54.0299 8.83705 54.4139 9.13571C54.7979 9.41305 55.1073 9.79705 55.3419 10.2877C55.5766 10.7784 55.6939 11.4077 55.6939 12.1757V31.5677ZM66.4779 13.6797C66.4779 13.445 66.4566 13.2104 66.4139 12.9757C66.3926 12.7197 66.3286 12.4957 66.2219 12.3037C66.1366 12.0904 65.9979 11.9197 65.8059 11.7917C65.6353 11.6637 65.3899 11.5997 65.0699 11.5997C64.6646 11.5997 64.3233 11.7277 64.0459 11.9837C63.9179 11.6424 63.8539 11.333 63.8539 11.0557C63.8539 10.7144 63.9073 10.3837 64.0139 10.0637C64.1419 9.72238 64.3339 9.42371 64.5899 9.16771C64.8459 8.91171 65.1659 8.70905 65.5499 8.55971C65.9553 8.38904 66.4459 8.30371 67.0219 8.30371C68.3019 8.30371 69.2939 8.68771 69.9979 9.45571C70.7019 10.2237 71.0539 11.2797 71.0539 12.6237V31.5677C70.4779 31.5677 69.9126 31.525 69.3579 31.4397C68.8246 31.3544 68.3339 31.1837 67.8859 30.9277C67.4593 30.6504 67.1179 30.245 66.8619 29.7117C66.6059 29.1784 66.4779 28.4637 66.4779 27.5677V13.6797Z" fill="black"/>
<path d="M78.5302 31.5677C77.9755 31.5677 77.4422 31.5144 76.9302 31.4077C76.4182 31.301 75.9595 31.109 75.5542 30.8317C75.1702 30.5544 74.8502 30.1704 74.5942 29.6797C74.3595 29.189 74.2422 28.549 74.2422 27.7597V12.1757C74.2422 11.4504 74.3915 10.8424 74.6902 10.3517C74.9889 9.83971 75.3622 9.44504 75.8102 9.16771C76.2582 8.86904 76.7489 8.65571 77.2822 8.52771C77.8369 8.39971 78.3595 8.33571 78.8502 8.33571V31.5677H78.5302ZM79.1702 18.2557H81.7622C81.7622 19.1304 81.6022 19.8664 81.2822 20.4637C80.9622 21.0397 80.3115 21.3277 79.3302 21.3277H79.1702V18.2557ZM81.9862 13.6797C81.9862 13.445 81.9649 13.2104 81.9222 12.9757C81.9009 12.7197 81.8369 12.4957 81.7302 12.3037C81.6449 12.0904 81.5062 11.9197 81.3142 11.7917C81.1435 11.6637 80.8982 11.5997 80.5782 11.5997C80.1729 11.5997 79.8315 11.7277 79.5542 11.9837C79.4262 11.6424 79.3622 11.333 79.3622 11.0557C79.3622 10.7144 79.4155 10.3837 79.5222 10.0637C79.6502 9.72238 79.8422 9.42371 80.0982 9.16771C80.3542 8.91171 80.6742 8.70905 81.0582 8.55971C81.4635 8.38904 81.9542 8.30371 82.5302 8.30371C83.1702 8.30371 83.7355 8.42104 84.2262 8.65571C84.7382 8.86905 85.1649 9.17838 85.5062 9.58371C85.8475 9.96771 86.1035 10.4264 86.2742 10.9597C86.4662 11.4717 86.5622 12.0264 86.5622 12.6237V31.5677C85.9862 31.5677 85.4209 31.525 84.8662 31.4397C84.3329 31.3544 83.8422 31.1837 83.3942 30.9277C82.9675 30.6504 82.6262 30.245 82.3702 29.7117C82.1142 29.1784 81.9862 28.4637 81.9862 27.5677V13.6797Z" fill="black"/>
<path d="M94.3814 31.5677H94.0614C93.5068 31.5677 92.9734 31.5144 92.4614 31.4077C91.9494 31.301 91.4908 31.109 91.0854 30.8317C90.7014 30.5544 90.3814 30.1704 90.1254 29.6797C89.8908 29.189 89.7734 28.549 89.7734 27.7597V8.33571H90.2854C90.7974 8.33571 91.2988 8.39971 91.7894 8.52771C92.2801 8.63438 92.7174 8.83705 93.1014 9.13571C93.4854 9.41305 93.7948 9.79705 94.0294 10.2877C94.2641 10.7784 94.3814 11.4077 94.3814 12.1757V31.5677ZM101.389 28.4957C101.389 28.8584 101.315 29.221 101.165 29.5837C101.037 29.9464 100.835 30.277 100.557 30.5757C100.301 30.853 99.9601 31.0877 99.5334 31.2797C99.1281 31.4717 98.6588 31.5677 98.1254 31.5677H97.9974C97.4214 31.5677 96.9414 31.4717 96.5574 31.2797C96.1734 31.0664 95.8534 30.821 95.5974 30.5437C95.3628 30.245 95.1921 29.9357 95.0854 29.6157C95.0001 29.2744 94.9574 28.9757 94.9574 28.7197C94.9574 28.549 94.9574 28.3997 94.9574 28.2717C94.9788 28.1224 95.0214 27.9624 95.0854 27.7917C95.3628 28.0477 95.7041 28.1757 96.1094 28.1757C96.4294 28.1757 96.6961 28.0797 96.9094 27.8877C97.1228 27.6744 97.2294 27.365 97.2294 26.9597V25.3917C97.2721 25.3704 97.4108 25.3597 97.6454 25.3597C97.9014 25.3384 98.1041 25.3277 98.2534 25.3277C98.4881 25.3277 98.7868 25.3704 99.1494 25.4557C99.5121 25.5197 99.8534 25.669 100.173 25.9037C100.515 26.1384 100.803 26.469 101.037 26.8957C101.272 27.301 101.389 27.8344 101.389 28.4957Z" fill="black"/>
<path d="M103.777 29.4237C103.777 28.7624 104.001 28.2077 104.449 27.7597C104.897 27.3117 105.431 27.0877 106.049 27.0877C106.711 27.0877 107.265 27.3117 107.713 27.7597C108.161 28.2077 108.385 28.7624 108.385 29.4237C108.385 30.0424 108.161 30.5757 107.713 31.0237C107.265 31.4717 106.711 31.6957 106.049 31.6957C105.431 31.6957 104.897 31.4717 104.449 31.0237C104.001 30.5757 103.777 30.0424 103.777 29.4237Z" fill="black"/>
<path d="M116.03 31.5677C115.476 31.5677 114.942 31.5144 114.43 31.4077C113.918 31.301 113.46 31.109 113.054 30.8317C112.67 30.5544 112.35 30.1704 112.094 29.6797C111.86 29.189 111.742 28.549 111.742 27.7597V12.1757C111.742 11.4504 111.892 10.8424 112.19 10.3517C112.489 9.83971 112.862 9.44504 113.31 9.16771C113.758 8.86904 114.249 8.65571 114.782 8.52771C115.337 8.39971 115.86 8.33571 116.35 8.33571V31.5677H116.03ZM116.67 18.2557H119.262C119.262 19.1304 119.102 19.8664 118.782 20.4637C118.462 21.0397 117.812 21.3277 116.83 21.3277H116.67V18.2557ZM119.486 13.6797C119.486 13.445 119.465 13.2104 119.422 12.9757C119.401 12.7197 119.337 12.4957 119.23 12.3037C119.145 12.0904 119.006 11.9197 118.814 11.7917C118.644 11.6637 118.398 11.5997 118.078 11.5997C117.673 11.5997 117.332 11.7277 117.054 11.9837C116.926 11.6424 116.862 11.333 116.862 11.0557C116.862 10.7144 116.916 10.3837 117.022 10.0637C117.15 9.72238 117.342 9.42371 117.598 9.16771C117.854 8.91171 118.174 8.70905 118.558 8.55971C118.964 8.38904 119.454 8.30371 120.03 8.30371C120.67 8.30371 121.236 8.42104 121.726 8.65571C122.238 8.86905 122.665 9.17838 123.006 9.58371C123.348 9.96771 123.604 10.4264 123.774 10.9597C123.966 11.4717 124.062 12.0264 124.062 12.6237V31.5677C123.486 31.5677 122.921 31.525 122.366 31.4397C121.833 31.3544 121.342 31.1837 120.894 30.9277C120.468 30.6504 120.126 30.245 119.87 29.7117C119.614 29.1784 119.486 28.4637 119.486 27.5677V13.6797Z" fill="black"/>
<path d="M131.881 31.5677H131.561C131.007 31.5677 130.473 31.5144 129.961 31.4077C129.449 31.301 128.991 31.109 128.585 30.8317C128.201 30.5544 127.881 30.1704 127.625 29.6797C127.391 29.189 127.273 28.549 127.273 27.7597V8.33571H127.785C128.297 8.33571 128.799 8.39971 129.289 8.52771C129.78 8.63438 130.217 8.83705 130.601 9.13571C130.985 9.41305 131.295 9.79705 131.529 10.2877C131.764 10.7784 131.881 11.4077 131.881 12.1757V31.5677Z" fill="black"/>
</svg>
