<svg width="40" height="41" viewBox="0 0 40 41" fill="none" xmlns="http://www.w3.org/2000/svg">
<path fill-rule="evenodd" clip-rule="evenodd" d="M31.6684 35.5C35.3503 35.5 38.3351 32.5152 38.3351 28.8333V13.8711C38.3357 13.8457 38.3357 13.8201 38.3351 13.7945V12.1667C38.3351 8.48477 35.3503 5.5 31.6684 5.5H8.33508C4.65318 5.5 1.66841 8.48477 1.66841 12.1667V13.7945C1.66782 13.8201 1.66782 13.8456 1.66841 13.8711V28.8333C1.66841 32.5152 4.65318 35.5 8.33508 35.5H31.6684ZM5.00175 28.8333C5.00175 30.6743 6.49413 32.1667 8.33508 32.1667H31.6684C33.5094 32.1667 35.0017 30.6743 35.0017 28.8333V16.2951L22.4777 21.3047C20.8883 21.9404 19.1152 21.9404 17.5258 21.3047L5.00175 16.2951V28.8333ZM21.2397 18.2098L35.0017 12.7049V12.1667C35.0017 10.3257 33.5094 8.83333 31.6684 8.83333H8.33508C6.49413 8.83333 5.00175 10.3257 5.00175 12.1667V12.7049L18.7638 18.2098C19.5585 18.5276 20.445 18.5276 21.2397 18.2098Z" fill="#F3A218"/>
</svg>
