<svg width="20" height="20" viewBox="0 0 20 20" fill="none" xmlns="http://www.w3.org/2000/svg">
<path d="M5.0013 7.08301C5.0013 6.62277 5.3744 6.24967 5.83464 6.24967H10.0013C10.4615 6.24967 10.8346 6.62277 10.8346 7.08301C10.8346 7.54324 10.4615 7.91634 10.0013 7.91634H5.83464C5.3744 7.91634 5.0013 7.54324 5.0013 7.08301Z" fill="#344054"/>
<path d="M5.83464 9.58301C5.3744 9.58301 5.0013 9.9561 5.0013 10.4163C5.0013 10.8766 5.3744 11.2497 5.83464 11.2497H13.3346C13.7949 11.2497 14.168 10.8766 14.168 10.4163C14.168 9.9561 13.7949 9.58301 13.3346 9.58301H5.83464Z" fill="#344054"/>
<path fill-rule="evenodd" clip-rule="evenodd" d="M12.8346 16.6247L14.0013 15.7497C14.2898 15.5333 14.6407 15.4163 15.0013 15.4163C16.8423 15.4163 18.3346 13.924 18.3346 12.083V5.41634C18.3346 3.57539 16.8423 2.08301 15.0013 2.08301H5.0013C3.16035 2.08301 1.66797 3.57539 1.66797 5.41634V12.083C1.66797 13.924 3.16035 15.4163 5.0013 15.4163H6.66797C7.02859 15.4163 7.37948 15.5333 7.66797 15.7497L8.83464 16.6247C10.0198 17.5136 11.6495 17.5136 12.8346 16.6247ZM15.0013 13.7497C14.2801 13.7497 13.5783 13.9836 13.0013 14.4163L11.8346 15.2913C11.242 15.7358 10.4272 15.7358 9.83464 15.2913L8.66797 14.4163C8.09098 13.9836 7.3892 13.7497 6.66797 13.7497H5.0013C4.08083 13.7497 3.33464 13.0035 3.33464 12.083V5.41634C3.33464 4.49587 4.08083 3.74967 5.0013 3.74967H15.0013C15.9218 3.74967 16.668 4.49587 16.668 5.41634V12.083C16.668 13.0035 15.9218 13.7497 15.0013 13.7497Z" fill="#344054"/>
</svg>
