<svg width="40" height="40" viewBox="0 0 40 40" fill="none" xmlns="http://www.w3.org/2000/svg">
<rect width="40" height="40" rx="6.66667" fill="#E8F6E6"/>
<path d="M15.8333 19.9997C15.8333 19.5394 16.2064 19.1663 16.6667 19.1663H23.3333C23.7936 19.1663 24.1667 19.5394 24.1667 19.9997C24.1667 20.4599 23.7936 20.833 23.3333 20.833H16.6667C16.2064 20.833 15.8333 20.4599 15.8333 19.9997Z" fill="#14A800"/>
<path d="M16.6667 23.333C16.2064 23.333 15.8333 23.7061 15.8333 24.1663C15.8333 24.6266 16.2064 24.9997 16.6667 24.9997H23.3333C23.7936 24.9997 24.1667 24.6266 24.1667 24.1663C24.1667 23.7061 23.7936 23.333 23.3333 23.333H16.6667Z" fill="#14A800"/>
<path fill-rule="evenodd" clip-rule="evenodd" d="M15.8333 10.833C13.9924 10.833 12.5 12.3254 12.5 14.1663V25.833C12.5 27.674 13.9924 29.1663 15.8333 29.1663H24.1667C26.0076 29.1663 27.5 27.674 27.5 25.833V17.5715C27.5 16.7917 27.2266 16.0366 26.7274 15.4375L23.8898 12.0324C23.2565 11.2724 22.3183 10.833 21.3291 10.833H15.8333ZM14.1667 14.1663C14.1667 13.2459 14.9129 12.4997 15.8333 12.4997H20.8333V14.9997C20.8333 16.8406 22.3257 18.333 24.1667 18.333H25.8333V25.833C25.8333 26.7535 25.0871 27.4997 24.1667 27.4997H15.8333C14.9129 27.4997 14.1667 26.7535 14.1667 25.833V14.1663ZM25.5661 16.6663C25.5299 16.6103 25.4901 16.5562 25.447 16.5045L22.6094 13.0994C22.5747 13.0577 22.5382 13.018 22.5 12.9803V14.9997C22.5 15.9201 23.2462 16.6663 24.1667 16.6663H25.5661Z" fill="#14A800"/>
</svg>
