<svg width="20" height="20" viewBox="0 0 20 20" fill="none" xmlns="http://www.w3.org/2000/svg">
<path fill-rule="evenodd" clip-rule="evenodd" d="M10.0005 5.00031C7.23904 5.00031 5.00046 7.23889 5.00046 10.0003C5.00046 12.7617 7.23904 15.0003 10.0005 15.0003C12.7619 15.0003 15.0005 12.7617 15.0005 10.0003C15.0005 7.23889 12.7619 5.00031 10.0005 5.00031ZM6.66713 10.0003C6.66713 8.15936 8.15951 6.66698 10.0005 6.66698C11.8414 6.66698 13.3338 8.15936 13.3338 10.0003C13.3338 11.8413 11.8414 13.3336 10.0005 13.3336C8.15951 13.3336 6.66713 11.8413 6.66713 10.0003Z" fill="#667185"/>
<path fill-rule="evenodd" clip-rule="evenodd" d="M12.0853 1.69106C10.9229 0.566521 9.07805 0.566521 7.91562 1.69106C7.62037 1.97669 7.20983 2.11008 6.80308 2.05255C5.20166 1.82604 3.70917 2.91039 3.42973 4.50343C3.35876 4.90805 3.10503 5.25727 2.74215 5.44981C1.31343 6.20785 0.743355 7.96237 1.45364 9.41541C1.63405 9.78448 1.63405 10.2161 1.45364 10.5852C0.743355 12.0382 1.31343 13.7928 2.74215 14.5508C3.10503 14.7433 3.35876 15.0926 3.42973 15.4972C3.70917 17.0902 5.20166 18.1746 6.80308 17.9481C7.20983 17.8905 7.62037 18.0239 7.91562 18.3096C9.07805 19.4341 10.9229 19.4341 12.0853 18.3096C12.3806 18.0239 12.7911 17.8905 13.1978 17.9481C14.7993 18.1746 16.2917 17.0902 16.5712 15.4972C16.6422 15.0926 16.8959 14.7433 17.2588 14.5508C18.6875 13.7928 19.2576 12.0382 18.5473 10.5852C18.3669 10.2161 18.3669 9.78448 18.5473 9.41541C19.2576 7.96237 18.6875 6.20785 17.2588 5.44981C16.8959 5.25727 16.6422 4.90805 16.5712 4.50343C16.2917 2.91039 14.7993 1.82604 13.1978 2.05255C12.7911 2.11008 12.3806 1.97669 12.0853 1.69106ZM9.07444 2.88893C9.59076 2.38945 10.4102 2.38945 10.9265 2.88893C11.5912 3.532 12.5155 3.83232 13.4313 3.70279C14.1426 3.60218 14.8055 4.08381 14.9296 4.79139C15.0894 5.70235 15.6606 6.4886 16.4776 6.92208C17.1122 7.25877 17.3654 8.03808 17.0499 8.68347C16.6438 9.51438 16.6438 10.4862 17.0499 11.3172C17.3654 11.9625 17.1122 12.7418 16.4776 13.0785C15.6606 13.512 15.0894 14.2983 14.9296 15.2092C14.8055 15.9168 14.1426 16.3984 13.4313 16.2978C12.5155 16.1683 11.5912 16.4686 10.9265 17.1117C10.4102 17.6112 9.59076 17.6112 9.07444 17.1117C8.40971 16.4686 7.48542 16.1683 6.56966 16.2978C5.85837 16.3984 5.19545 15.9168 5.07134 15.2092C4.91154 14.2983 4.3403 13.512 3.5233 13.0785C2.88871 12.7418 2.6355 11.9625 2.95099 11.3172C3.35716 10.4862 3.35716 9.51438 2.95099 8.68347C2.6355 8.03808 2.88871 7.25877 3.5233 6.92208C4.3403 6.4886 4.91154 5.70235 5.07134 4.79139C5.19545 4.08381 5.85837 3.60218 6.56966 3.70279C7.48542 3.83232 8.40971 3.532 9.07444 2.88893Z" fill="#667185"/>
</svg>
