<svg width="20" height="20" viewBox="0 0 20 20" fill="none" xmlns="http://www.w3.org/2000/svg">
<g clip-path="url(#clip0_7360_3777)">
<path fill-rule="evenodd" clip-rule="evenodd" d="M10 2.5C7.69881 2.5 5.83333 4.36548 5.83333 6.66667C5.83333 8.96785 7.69881 10.8333 10 10.8333C12.3012 10.8333 14.1667 8.96785 14.1667 6.66667C14.1667 4.36548 12.3012 2.5 10 2.5ZM7.5 6.66667C7.5 5.28595 8.61929 4.16667 10 4.16667C11.3807 4.16667 12.5 5.28595 12.5 6.66667C12.5 8.04738 11.3807 9.16667 10 9.16667C8.61929 9.16667 7.5 8.04738 7.5 6.66667Z" fill="#667185"/>
<path fill-rule="evenodd" clip-rule="evenodd" d="M20 10C20 15.5228 15.5228 20 10 20L9.98669 20C4.46996 19.9928 0 15.5184 0 10C0 4.47715 4.47715 0 10 0C15.5228 0 20 4.47715 20 10ZM1.66667 10C1.66667 5.39763 5.39763 1.66667 10 1.66667C14.6024 1.66667 18.3333 5.39763 18.3333 10C18.3333 11.9891 17.6364 13.8155 16.4734 15.2483C16.4391 15.1693 16.4001 15.0903 16.3561 15.0114C15.2261 12.9812 12.8764 10.8333 9.99744 10.8333C7.11847 10.8333 4.7688 12.9812 3.63874 15.0114C3.59552 15.089 3.55714 15.1667 3.52346 15.2444C2.36234 13.8122 1.66667 11.9874 1.66667 10ZM6.22369 17.3588C7.35702 17.9639 8.9243 18.3321 9.99198 18.3333L9.99744 18.3333C11.0687 18.3333 12.6447 17.9718 13.7807 17.3702C14.3533 17.067 14.7203 16.7516 14.8906 16.4785C15.0234 16.2656 15.0455 16.0836 14.8999 15.822C13.9343 14.0873 12.0452 12.5 9.99744 12.5C7.94967 12.5 6.06058 14.0873 5.09501 15.822C4.957 16.0699 4.97558 16.2466 5.11091 16.4621C5.28304 16.7364 5.65184 17.0535 6.22369 17.3588Z" fill="#667185"/>
</g>
<defs>
<clipPath id="clip0_7360_3777">
<rect width="20" height="20" fill="white"/>
</clipPath>
</defs>
</svg>
